<svg xmlns="http://www.w3.org/2000/svg" width="960" height="520" viewBox="0 0 960 520">
<rect width="100%" height="100%" fill="white"/>
<text x="480.0" y="32.0" text-anchor="middle" font-family="Segoe UI,Arial,sans-serif" font-size="20">Nomic FP32 CPU / verified-NPU inference speedup</text>
<text x="480.0" y="54.0" text-anchor="middle" font-family="Segoe UI,Arial,sans-serif" font-size="12">Five independent processes per displayed cell</text>
<line x1="75" y1="410.0" x2="935" y2="410.0" stroke="#e5e7eb"/>
<text x="65.0" y="414.0" text-anchor="end" font-family="Segoe UI,Arial,sans-serif" font-size="11">0×</text>
<line x1="75" y1="361.4" x2="935" y2="361.4" stroke="#e5e7eb"/>
<text x="65.0" y="365.4" text-anchor="end" font-family="Segoe UI,Arial,sans-serif" font-size="11">1×</text>
<line x1="75" y1="312.9" x2="935" y2="312.9" stroke="#e5e7eb"/>
<text x="65.0" y="316.9" text-anchor="end" font-family="Segoe UI,Arial,sans-serif" font-size="11">2×</text>
<line x1="75" y1="264.3" x2="935" y2="264.3" stroke="#e5e7eb"/>
<text x="65.0" y="268.3" text-anchor="end" font-family="Segoe UI,Arial,sans-serif" font-size="11">3×</text>
<line x1="75" y1="215.7" x2="935" y2="215.7" stroke="#e5e7eb"/>
<text x="65.0" y="219.7" text-anchor="end" font-family="Segoe UI,Arial,sans-serif" font-size="11">4×</text>
<line x1="75" y1="167.1" x2="935" y2="167.1" stroke="#e5e7eb"/>
<text x="65.0" y="171.1" text-anchor="end" font-family="Segoe UI,Arial,sans-serif" font-size="11">5×</text>
<line x1="75" y1="118.6" x2="935" y2="118.6" stroke="#e5e7eb"/>
<text x="65.0" y="122.6" text-anchor="end" font-family="Segoe UI,Arial,sans-serif" font-size="11">6×</text>
<line x1="75" y1="70.0" x2="935" y2="70.0" stroke="#e5e7eb"/>
<text x="65.0" y="74.0" text-anchor="end" font-family="Segoe UI,Arial,sans-serif" font-size="11">7×</text>
<rect x="95.4" y="324.0" width="66.7" height="86.0" rx="3" fill="#7c3aed"/>
<text x="128.8" y="317.0" text-anchor="middle" font-family="Segoe UI,Arial,sans-serif" font-size="11">1.77×</text>
<text x="128.8" y="434.0" text-anchor="middle" font-family="Segoe UI,Arial,sans-serif" font-size="11">b1/s32</text>
<rect x="202.9" y="199.2" width="66.7" height="210.8" rx="3" fill="#7c3aed"/>
<text x="236.2" y="192.2" text-anchor="middle" font-family="Segoe UI,Arial,sans-serif" font-size="11">4.34×</text>
<text x="236.2" y="434.0" text-anchor="middle" font-family="Segoe UI,Arial,sans-serif" font-size="11">b1/s128</text>
<rect x="310.4" y="164.3" width="66.7" height="245.7" rx="3" fill="#7c3aed"/>
<text x="343.8" y="157.3" text-anchor="middle" font-family="Segoe UI,Arial,sans-serif" font-size="11">5.06×</text>
<text x="343.8" y="434.0" text-anchor="middle" font-family="Segoe UI,Arial,sans-serif" font-size="11">b1/s512</text>
<rect x="417.9" y="187.1" width="66.7" height="222.9" rx="3" fill="#7c3aed"/>
<text x="451.2" y="180.1" text-anchor="middle" font-family="Segoe UI,Arial,sans-serif" font-size="11">4.59×</text>
<text x="451.2" y="434.0" text-anchor="middle" font-family="Segoe UI,Arial,sans-serif" font-size="11">b8/s32</text>
<rect x="525.4" y="98.3" width="66.7" height="311.7" rx="3" fill="#7c3aed"/>
<text x="558.8" y="91.3" text-anchor="middle" font-family="Segoe UI,Arial,sans-serif" font-size="11">6.42×</text>
<text x="558.8" y="434.0" text-anchor="middle" font-family="Segoe UI,Arial,sans-serif" font-size="11">b8/s128</text>
<rect x="632.9" y="186.4" width="66.7" height="223.6" rx="3" fill="#7c3aed"/>
<text x="666.2" y="179.4" text-anchor="middle" font-family="Segoe UI,Arial,sans-serif" font-size="11">4.60×</text>
<text x="666.2" y="434.0" text-anchor="middle" font-family="Segoe UI,Arial,sans-serif" font-size="11">b8/s512</text>
<rect x="740.4" y="157.8" width="66.7" height="252.2" rx="3" fill="#7c3aed"/>
<text x="773.8" y="150.8" text-anchor="middle" font-family="Segoe UI,Arial,sans-serif" font-size="11">5.19×</text>
<text x="773.8" y="434.0" text-anchor="middle" font-family="Segoe UI,Arial,sans-serif" font-size="11">b32/s32</text>
<rect x="847.9" y="95.5" width="66.7" height="314.5" rx="3" fill="#7c3aed"/>
<text x="881.2" y="88.5" text-anchor="middle" font-family="Segoe UI,Arial,sans-serif" font-size="11">6.48×</text>
<text x="881.2" y="434.0" text-anchor="middle" font-family="Segoe UI,Arial,sans-serif" font-size="11">b32/s128</text>
<text x="480.0" y="492.0" text-anchor="middle" font-family="Segoe UI,Arial,sans-serif" font-size="13">Batch / sequence length</text>
</svg>
